<?xml version="1.0" encoding="UTF-8" standalone="no"?>
<!-- Created with Inkscape (http://www.inkscape.org/) -->

<svg
   xmlns:dc="http://purl.org/dc/elements/1.1/"
   xmlns:cc="http://creativecommons.org/ns#"
   xmlns:rdf="http://www.w3.org/1999/02/22-rdf-syntax-ns#"
   xmlns:svg="http://www.w3.org/2000/svg"
   xmlns="http://www.w3.org/2000/svg"
   xmlns:sodipodi="http://sodipodi.sourceforge.net/DTD/sodipodi-0.dtd"
   xmlns:inkscape="http://www.inkscape.org/namespaces/inkscape"
   id="svg3125"
   version="1.1"
   inkscape:version="0.48.2 r9819"
   width="400"
   height="82.089645"
   sodipodi:docname="logo_black.svg">
  <metadata
     id="metadata3131">
    <rdf:RDF>
      <cc:Work
         rdf:about="">
        <dc:format>image/svg+xml</dc:format>
        <dc:type
           rdf:resource="http://purl.org/dc/dcmitype/StillImage" />
        <dc:title></dc:title>
      </cc:Work>
    </rdf:RDF>
  </metadata>
  <defs
     id="defs3129" />
  <sodipodi:namedview
     pagecolor="#ffffff"
     bordercolor="#666666"
     borderopacity="1"
     objecttolerance="10"
     gridtolerance="10"
     guidetolerance="10"
     inkscape:pageopacity="0"
     inkscape:pageshadow="2"
     inkscape:window-width="1168"
     inkscape:window-height="675"
     id="namedview3127"
     showgrid="false"
     fit-margin-top="0"
     fit-margin-left="0"
     fit-margin-right="0"
     fit-margin-bottom="0"
     showguides="true"
     inkscape:guide-bbox="true"
     inkscape:zoom="0.12"
     inkscape:cx="-1223.9368"
     inkscape:cy="91.497153"
     inkscape:window-x="50"
     inkscape:window-y="34"
     inkscape:window-maximized="0"
     inkscape:current-layer="svg3125" />
  <path
     style="fill:#000000"
     d="m 38.717493,82.04323 c -5.48759,-0.32647 -10.34792,-2.03357 -13.8251,-4.85582 -0.73402,-0.59578 -1.885921,-1.75384 -2.478501,-2.49179 -0.42343,-0.52731 -1.38405,-1.92557 -1.67875,-2.44357 l -0.11304,-0.19869 2.82823,-1.92036 2.8282,-1.92036 0.222881,0.40867 c 0.603039,1.10573 1.416079,2.1843 2.34342,3.10876 1.1091,1.10565 2.18703,1.87697 3.68839,2.63929 1.89244,0.96087 3.76866,1.54822 5.82843,1.82457 0.88404,0.11861 2.66668,0.16105 3.44748,0.0821 3.24252,-0.32797 6.27439,-1.77612 8.10273,-3.8702 1.4018,-1.60554 2.0247,-3.2004 2.02562,-5.18624 0,-2.07426 -0.68772,-3.83043 -1.91648,-4.88721 -2.28864,-1.96834 -5.51629,-3.15096 -12.14039,-4.44828 -2.33501,-0.4573 -3.53151,-0.75059 -4.89063,-1.19881 -3.60739,-1.18965 -5.74413,-2.47477 -7.82185,-4.70437 -1.02276,-1.09753 -1.69018,-2.35207 -2.09518,-3.93831 -0.41212,-1.61411 -0.526411,-3.8841 -0.287401,-5.70847 0.28846,-2.20189 1.02803,-4.00552 2.4008,-5.85482 3.16972,-4.27008 9.00533,-6.6156 15.64902,-6.28984 2.36878,0.11614 4.03178,0.37483 5.94454,0.92471 3.94345,1.13365 6.95409,3.28053 9.08264,6.47675 0.49522,0.74363 1.1018,1.81546 1.0542,1.86279 -0.0192,0.0191 -1.14128,0.68909 -2.49356,1.4889 -1.35227,0.79981 -2.63125,1.55827 -2.84219,1.68547 l -0.38352,0.23128 -0.27904,-0.49084 c -1.42948,-2.51445 -3.43838,-4.45328 -5.594309,-5.3992 -1.4735,-0.64649 -3.10818,-0.97298 -5.17642,-1.03388 -1.24474,-0.0366 -1.9366,0.0153 -2.989451,0.22465 -3.60338,0.71632 -6.3553,2.57024 -7.545849,5.0835 -0.34596,0.73033 -0.49902,1.38546 -0.535561,2.29206 -0.0836,2.07578 0.48376,3.67156 1.71433,4.82159 0.68594,0.64105 2.269261,1.58185 3.561761,2.11639 1.87316,0.77468 4.97217,1.56502 8.81915,2.24915 2.36202,0.42004 3.52354,0.69477 5.00661,1.18416 3.02114,0.99693 5.09566,2.18321 6.84835,3.91609 1.03358,1.02191 1.6398,1.84305 2.14584,2.9066 0.53614,1.12682 0.87262,2.36735 1.04082,3.83733 0.38092,3.32899 -0.0962,6.54282 -1.32752,8.94128 -1.18572,2.30972 -2.83171,4.0916 -5.16091,5.58703 -0.75036,0.48175 -2.41458,1.30595 -3.2962,1.63244 -1.66993,0.61841 -3.75123,1.08103 -5.68459,1.26354 -0.8495,0.0802 -3.07084,0.10887 -4.02701,0.052 z m 56.40743,-0.004 c -4.01679,-0.24154 -7.99227,-1.36835 -11.09075,-3.14354 -3.05729,-1.75159 -5.33185,-3.87764 -6.90951,-6.45838 -0.11524,-0.18849 -0.2068,-0.28061 -0.27894,-0.28061 -0.10668,0 -0.1074,0.029 -0.1074,4.3294 l 0,4.32941 -3.20697,0 -3.20696,0 0,-40.40776 0,-40.40775 3.20696,0 3.20697,0 0,20.04353 c 0,20.03863 2e-5,20.04353 0.1074,20.04353 0.0721,0 0.1637,-0.0921 0.27894,-0.28061 2.57474,-4.21176 7.30897,-7.4435 12.93565,-8.83032 4.40895,-1.08669 9.25168,-1.08633 13.661377,10e-4 1.8331,0.45201 3.38134,1.01939 5.16645,1.89337 3.43436,1.68144 6.28312,4.00499 8.58565,7.00274 1.23508,1.60801 2.50702,3.85696 3.3039,5.8417 1.4146,3.52331 2.07662,7.64647 1.88338,11.7298 -0.10116,2.13751 -0.33918,3.85047 -0.78794,5.67042 -0.45202,1.83311 -1.0194,3.38134 -1.89338,5.16645 -1.68144,3.43436 -4.00499,6.28313 -7.00273,8.58565 -1.60802,1.23508 -3.85696,2.50702 -5.84171,3.3039 -3.6051,1.44744 -7.898907,2.11528 -12.010387,1.86805 z m 4.169049,-5.84329 c 2.972698,-0.35001 5.652638,-1.28016 8.102028,-2.81203 5.23576,-3.27448 8.31199,-8.67409 8.84155,-15.51932 0.18464,-2.38657 -0.0353,-5.0243 -0.61586,-7.38763 -1.09713,-4.46578 -3.40573,-8.06345 -6.84045,-10.66005 -2.82959,-2.13911 -6.08101,-3.40589 -9.754517,-3.80043 -0.86564,-0.093 -3.76946,-0.0947 -4.569921,-0.003 -1.84092,0.21157 -3.56039,0.61365 -5.034149,1.1772 -5.03216,1.92425 -9.00643,5.48153 -11.26085,10.07939 -1.056141,2.15397 -1.630481,4.07023 -1.940101,6.47299 -0.136809,1.06167 -0.136809,3.69533 0,4.757 0.24604,1.90927 0.70936,3.67504 1.380761,5.26219 1.816239,4.29344 4.870319,7.68753 8.96735,9.96564 2.48454,1.38152 5.178289,2.23375 7.86027,2.48677 0.33806,0.0319 0.71086,0.0674 0.828459,0.0788 0.521601,0.0509 3.35572,-0.0179 4.03543,-0.0979 z m 58.179668,5.8472 c -3.66678,-0.21749 -6.81917,-1.02643 -9.88813,-2.53739 -2.28795,-1.12644 -4.08783,-2.39564 -5.87317,-4.14155 -2.05066,-2.00536 -3.50278,-4.02769 -4.74021,-6.60153 -2.16688,-4.50715 -3.07726,-9.98678 -2.58656,-15.5684 0.49376,-5.61635 2.59894,-10.76605 6.02459,-14.73742 0.69328,-0.80373 2.22888,-2.29582 3.00628,-2.92112 3.15233,-2.53552 6.80103,-4.23648 10.58792,-4.9359 1.97062,-0.36396 4.19268,-0.5103 6.2402,-0.41097 3.69057,0.17903 6.60835,0.89001 9.4141,2.29395 1.09468,0.54776 1.50816,0.78725 2.56702,1.48689 2.5626,1.69324 4.67793,3.87801 6.36275,6.57168 0.44652,0.71389 1.20156,2.17465 1.57474,3.04661 0.6635,1.55035 1.33778,3.87698 1.62648,5.61219 0.27944,1.67956 0.30868,2.15262 0.33624,5.43848 l 0.0259,3.0867 -20.75224,0 -20.75223,0 0.0339,0.66917 c 0.0801,1.5811 0.59896,4.14249 1.18376,5.84406 0.94612,2.75289 2.80052,5.576 4.91867,7.4881 1.73632,1.56742 3.5231,2.71438 5.34506,3.4311 2.82793,1.11244 7.05839,1.4733 10.5513,0.90004 3.36706,-0.55262 6.82599,-2.08463 9.51895,-4.21611 1.13894,-0.90147 2.58124,-2.48859 3.39402,-3.73482 0.1764,-0.27045 0.33906,-0.4921 0.36148,-0.49256 0.0224,-6e-4 1.08661,0.87899 2.36481,1.95434 l 2.324,1.95517 -0.25098,0.35651 c -1.0927,1.5522 -1.76504,2.35734 -2.97702,3.56513 -1.67083,1.66501 -3.15811,2.7486 -5.16287,3.76142 -2.9688,1.49988 -6.35401,2.42355 -10.10193,2.75638 -1.14984,0.1021 -3.59715,0.14389 -4.67683,0.0798 z M 175.709,51.19121 c -0.21744,-4.8354 -2.93218,-9.47539 -7.19804,-12.30279 -2.32781,-1.54285 -4.79517,-2.46153 -7.64327,-2.84583 -1.01621,-0.13712 -3.64843,-0.13713 -4.75701,-10e-6 -2.79964,0.34627 -4.72941,1.03182 -6.84917,2.43316 -2.41606,1.59723 -4.02325,3.18375 -5.51547,5.44456 -1.16826,1.77003 -1.83662,3.15874 -2.4125,5.01267 -0.32504,1.0464 -0.60932,2.20677 -0.65146,2.65911 l -0.0336,0.36078 17.5474,0 17.5474,0 -0.0343,-0.76165 z m 40.1436,30.85426 c -3.9697,-0.2262 -7.3377,-1.06216 -9.8469,-2.44408 -2.35,-1.29428 -4.0285,-2.90836 -5.2682,-5.06615 -1.09906,-1.91286 -1.69065,-4.04862 -1.86521,-6.73371 -0.0358,-0.55145 -0.0555,-5.33085 -0.0555,-13.48262 l 0,-12.62833 -5.13114,0 -5.13113,0 0,-6.41393 0,-6.41393 5.13113,0 5.13114,0 0,-7.69672 0,-7.69671 8.01741,0 8.0174,0 0,7.69671 0,7.69672 7.0553,0 7.0553,0 0,6.41393 0,6.41393 -7.0553,0 -7.0553,0 0,9.31356 c 0,9.27375 0.016,10.21856 0.1905,11.73777 0.2293,1.99032 0.8779,3.43634 1.9572,4.36386 1.6464,1.41475 4.23,1.81479 8.4351,1.30606 1.5409,-0.18643 2.5288,-0.50353 3.2255,-1.03531 0.1373,-0.10482 0.2614,-0.19057 0.2759,-0.19057 0.014,0 0.026,2.99251 0.026,6.65002 l 0,6.65003 -0.6547,0.21505 c -2.2207,0.7294 -4.2571,1.08248 -7.4429,1.29049 -1.1831,0.0773 -4.0595,0.1082 -5.0119,0.0539 z m 46.9966,0.0157 c -0.2499,-0.008 -0.8993,-0.0525 -1.4432,-0.0978 -8.7468,-0.72911 -16.2514,-4.69906 -20.862,-11.03594 -2.1984,-3.02158 -3.744,-6.50853 -4.4657,-10.07521 -0.4685,-2.31558 -0.6652,-4.932 -0.5516,-7.33593 0.1616,-3.41723 0.7224,-6.19302 1.8014,-8.91599 1.9865,-5.01301 5.3744,-9.19805 9.8112,-12.11962 3.578,-2.35605 7.7977,-3.91434 12.3158,-4.54811 1.7583,-0.24664 2.799,-0.31569 4.7837,-0.31739 2.7272,-0.002 4.5424,0.20226 6.7956,0.76591 6.5628,1.64173 11.5717,5.73803 14.608,11.94656 1.5471,3.16358 2.5102,6.71326 2.8858,10.63643 0.1398,1.46069 0.1899,3.04582 0.1902,6.02642 l 0,2.87291 -18.6004,0 c -10.2302,0 -18.6003,0.018 -18.6,0.0401 0,0.0221 0.071,0.31669 0.1575,0.65476 1.1724,4.58814 4.3396,7.9098 8.535,8.9514 1.0764,0.26723 1.7268,0.35199 2.959,0.38556 2.9776,0.0811 5.2783,-0.51595 7.3473,-1.90681 1.5578,-1.04726 2.9159,-2.31668 4.1256,-3.85625 0.1932,-0.24591 0.372,-0.4549 0.3973,-0.46442 0.073,-0.0275 11.1398,8.11051 11.1398,8.19194 0,0.1196 -0.9025,1.17378 -1.736,2.02765 -2.066,2.1167 -4.2491,3.70734 -6.9228,5.04406 -4.6579,2.32873 -9.2716,3.31293 -14.6719,3.12982 z m 9.8346,-33.624 c 0,-2.84871 -1.4235,-5.6299 -3.8001,-7.4246 -1.2093,-0.91321 -2.5876,-1.49277 -4.1905,-1.76206 -0.8203,-0.13781 -2.9907,-0.13893 -3.8639,-0.002 -1.7989,0.28208 -3.3153,0.87356 -4.8217,1.88071 -1.5468,1.03423 -2.6557,2.27464 -3.4403,3.84851 -0.5285,1.0601 -0.9259,2.44275 -1.0254,3.56775 l -0.037,0.41423 10.5893,0 10.5892,0 0,-0.52253 z m 51.5253,33.62805 c -9.3197,-0.39931 -17.4435,-4.45586 -22.3052,-11.13782 -2.1984,-3.02158 -3.744,-6.50853 -4.4656,-10.07521 -0.4686,-2.31558 -0.6653,-4.932 -0.5517,-7.33593 0.1616,-3.41723 0.7224,-6.19302 1.8014,-8.91599 1.9865,-5.01301 5.3744,-9.19805 9.8112,-12.11962 4.0938,-2.69571 8.8149,-4.27529 14.2667,-4.7734 1.3723,-0.12538 4.2893,-0.12703 5.5053,-0.003 4.1528,0.42314 8.1955,1.54255 10.905,3.01956 1.686,0.919 3.3869,2.17428 4.562,3.36674 0.3846,0.39024 0.4147,0.43605 0.3475,0.52924 -0.1551,0.21488 -10.4339,10.97557 -10.4704,10.96117 -0.021,-0.008 -0.1838,-0.19647 -0.3615,-0.41807 -1.4339,-1.78887 -3.8042,-3.06962 -6.2905,-3.39896 -0.7773,-0.10296 -2.5951,-0.0724 -3.5495,0.0597 -3.7389,0.51742 -6.4211,2.1258 -8.3631,5.01508 -0.7908,1.17657 -1.5031,2.89803 -1.8176,4.39274 -0.2742,1.30303 -0.324,1.85734 -0.324,3.60783 0,1.75049 0.05,2.3048 0.324,3.60784 0.3145,1.4947 1.0268,3.21616 1.8176,4.39274 1.942,2.88924 4.6262,4.49881 8.3631,5.0149 0.8564,0.11828 2.7152,0.16364 3.4143,0.0833 1.5589,-0.17908 2.6637,-0.57895 3.9553,-1.43147 0.7885,-0.5205 1.5553,-1.15068 2.2458,-1.84555 l 0.5921,-0.59581 0.3919,0.3979 c 0.9979,1.01297 10.1325,10.64293 10.1325,10.68191 0,0.0856 -1.2112,1.21447 -1.8707,1.74367 -2.4929,2.00012 -4.963,3.18726 -8.5519,4.10999 -1.9219,0.49412 -3.586,0.791 -5.4252,0.96785 -0.8376,0.0806 -3.1889,0.13736 -4.0888,0.0988 z M 1.5884625,56.12192 l 0,-24.69363 3.20696,0 3.20697,0 0,24.69363 0,24.69362 -3.20697,0 -3.20696,0 0,-24.69362 z M 349.9717,40.4078 l 0,-40.40776 8.0174,0 8.0174,0 0,17.96272 0,17.96272 0.1079,-0.0171 c 0.079,-0.0125 0.1699,-0.15485 0.3386,-0.53025 0.5061,-1.12586 1.182,-2.05864 2.3024,-3.17731 1.2296,-1.22764 2.3014,-1.99008 3.9056,-2.77809 2.9246,-1.4367 5.8911,-1.98559 9.701,-1.79496 3.7156,0.18591 6.4728,0.85094 8.772,2.11576 2.2081,1.21473 4.0253,2.9052 5.2956,4.92627 1.9513,3.10467 2.957,6.84637 3.3812,12.5795 0.1719,2.32387 0.1889,4.00606 0.1892,18.74738 l 0,14.81885 -8.0174,0 -8.0174,0 0,-13.56279 c 0,-12.9924 -0.016,-14.64401 -0.1622,-16.6094 -0.175,-2.35866 -0.807,-4.4703 -1.768,-5.9069 -0.3798,-0.56794 -1.1367,-1.38095 -1.6452,-1.7673 -0.7128,-0.54161 -1.701,-0.9384 -2.865,-1.15039 -0.7701,-0.14026 -3.0623,-0.14261 -3.9018,-0.004 -1.4442,0.23845 -2.4103,0.58902 -3.3872,1.22908 -1.4096,0.92362 -2.3115,2.02617 -3.0263,3.69961 -0.6499,1.52162 -0.9824,3.2608 -1.1491,6.01115 -0.033,0.54732 -0.053,6.03784 -0.054,14.47143 l 0,13.58952 -8.0174,0 -8.0174,0 0,-40.40776 z M 3.9651625,16.59896 c -1.4877,-0.23126 -2.8012,-1.19883 -3.4867,-2.56843 -0.63795,-1.27454 -0.63795,-3.05485 0,-4.3294 0.44918,-0.89744 1.24928,-1.69723 2.15226,-2.15146 1.27024,-0.63895 3.05916,-0.63895 4.3294,0 0.90299,0.45423 1.70307,1.25402 2.15227,2.15146 0.63794,1.27455 0.63794,3.05486 0,4.3294 -0.23608,0.47168 -0.5696,0.91673 -0.98378,1.31279 -0.76725,0.73368 -1.50299,1.09844 -2.53145,1.25502 -0.60088,0.0915 -1.04634,0.0917 -1.632,6e-4 z"
     id="path3135"
     inkscape:connector-curvature="0" />
</svg>
