<?xml version="1.0" encoding="UTF-8" standalone="no"?>
<!-- Created with Inkscape (http://www.inkscape.org/) -->

<svg
   xmlns:dc="http://purl.org/dc/elements/1.1/"
   xmlns:cc="http://creativecommons.org/ns#"
   xmlns:rdf="http://www.w3.org/1999/02/22-rdf-syntax-ns#"
   xmlns:svg="http://www.w3.org/2000/svg"
   xmlns="http://www.w3.org/2000/svg"
   xmlns:sodipodi="http://sodipodi.sourceforge.net/DTD/sodipodi-0.dtd"
   xmlns:inkscape="http://www.inkscape.org/namespaces/inkscape"
   id="svg3125"
   version="1.1"
   inkscape:version="0.48.2 r9819"
   width="1999.9973"
   height="410.44769"
   sodipodi:docname="logo_black.svg">
  <metadata
     id="metadata3131">
    <rdf:RDF>
      <cc:Work
         rdf:about="">
        <dc:format>image/svg+xml</dc:format>
        <dc:type
           rdf:resource="http://purl.org/dc/dcmitype/StillImage" />
        <dc:title></dc:title>
      </cc:Work>
    </rdf:RDF>
  </metadata>
  <defs
     id="defs3129" />
  <sodipodi:namedview
     pagecolor="#ffffff"
     bordercolor="#666666"
     borderopacity="1"
     objecttolerance="10"
     gridtolerance="10"
     guidetolerance="10"
     inkscape:pageopacity="0"
     inkscape:pageshadow="2"
     inkscape:window-width="1168"
     inkscape:window-height="675"
     id="namedview3127"
     showgrid="false"
     fit-margin-top="0"
     fit-margin-left="0"
     fit-margin-right="0"
     fit-margin-bottom="0"
     showguides="true"
     inkscape:guide-bbox="true"
     inkscape:zoom="0.12"
     inkscape:cx="-423.93808"
     inkscape:cy="255.67621"
     inkscape:window-x="0"
     inkscape:window-y="0"
     inkscape:window-maximized="0"
     inkscape:current-layer="svg3125" />
  <path
     style="fill:#000000"
     d="m 193.58718,410.2154 c -27.4379,-1.63231 -51.7395,-10.16782 -69.1254,-24.27904 -3.6701,-2.97891 -9.4296,-8.76921 -12.3925,-12.45896 -2.1171,-2.63652 -6.9202,-9.6278 -8.3937,-12.21782 l -0.5652,-0.99346 14.1411,-9.60177 14.141,-9.60178 1.1144,2.04334 c 3.0152,5.52862 7.0804,10.92149 11.7171,15.54379 5.5455,5.52824 10.9351,9.38482 18.4419,13.1964 9.4622,4.80438 18.8433,7.7411 29.1421,9.12287 4.4202,0.59305 13.3334,0.80524 17.2374,0.41036 16.21259,-1.63985 31.3719,-8.88061 40.51359,-19.35101 7.009,-8.02769 10.12351,-16.00196 10.1281,-25.93116 0,-10.37126 -3.4386,-19.1521 -9.58239,-24.43602 -11.44321,-9.84168 -27.58141,-15.75476 -60.7019,-22.24134 -11.67501,-2.28654 -17.6575,-3.75297 -24.45311,-5.99405 -18.0369,-5.94824 -28.7206,-12.37387 -39.1092,-23.52181 -5.1138,-5.48764 -8.45089,-11.76038 -10.47589,-19.69154 -2.0606,-8.07055 -2.63201,-19.42049 -1.437,-28.54232 1.4423,-11.00941 5.14019,-20.02758 12.004,-29.27408 15.84859,-21.35036 45.0266,-33.07792 78.24499,-31.44916 11.8439,0.5807 20.1589,1.87417 29.7227,4.62358 19.7172,5.66825 34.7704,16.40259 45.4131,32.38367 2.4761,3.71815 5.509,9.0773 5.27101,9.31397 -0.096,0.0954 -5.7064,3.44544 -12.4678,7.4445 -6.7613,3.99902 -13.1562,7.79133 -14.2109,8.42733 l -1.91761,1.15637 -1.39519,-2.45418 c -7.1474,-12.57224 -17.1919,-22.26639 -27.97151,-26.99594 -7.36749,-3.23248 -15.5409,-4.86493 -25.88209,-5.1694 -6.2237,-0.18323 -9.683,0.0767 -14.9472,1.12321 -18.0169,3.58161 -31.7765,12.85122 -37.72921,25.4175 -1.7298,3.65163 -2.4951,6.92727 -2.6778,11.46026 -0.41809,10.3789 2.4188,18.35781 8.57161,24.10795 3.4297,3.20525 11.3463,7.90924 17.80879,10.58192 9.3658,3.8734 24.8608,7.82507 44.0957,11.24572 11.8101,2.10023 17.6177,3.47386 25.033,5.92081 15.1057,4.98463 25.4783,10.91603 34.2417,19.58041 5.1679,5.10954 8.199,9.21526 10.7292,14.53301 2.6807,5.63407 4.3631,11.8367 5.2041,19.18663 1.9046,16.64492 -0.4812,32.71404 -6.6376,44.70631 -5.9286,11.54861 -14.1585,20.458 -25.8045,27.9351 -3.7518,2.40878 -12.0729,6.52978 -16.481,8.1622 -8.3496,3.09204 -18.7561,5.40514 -28.4229,6.31768 -4.2475,0.40098 -15.3542,0.54439 -20.135,0.25995 z m 282.0368,-0.0198 c -20.0839,-1.20769 -39.9613,-6.84173 -55.4537,-15.71766 -15.2864,-8.75794 -26.6592,-19.38816 -34.5475,-32.29184 -0.5762,-0.94245 -1.034,-1.40305 -1.3947,-1.40305 -0.5334,0 -0.537,0.14498 -0.537,21.64698 l 0,21.64698 -16.0348,0 -16.0348,0 0,-202.0385 0,-202.03851 16.0348,0 16.0348,0 0,100.21751 c 0,100.19304 10e-5,100.21752 0.537,100.21752 0.3607,0 0.8185,-0.4606 1.3947,-1.40305 12.8737,-21.05873 36.5448,-37.21742 64.6782,-44.15154 22.0447,-5.43345 46.2583,-5.43163 68.30679,0.005 9.1655,2.26005 16.9067,5.09698 25.8322,9.46684 17.1718,8.40718 31.4156,20.02492 42.9282,35.01368 6.1754,8.04004 12.5351,19.28476 16.5195,29.20846 7.073,17.61653 10.3831,38.23231 9.4169,58.6489 -0.5058,10.68757 -1.6959,19.25232 -3.9397,28.35207 -2.2601,9.16554 -5.097,16.90669 -9.4669,25.8322 -8.4072,17.1718 -20.0249,31.41564 -35.0136,42.92823 -8.0401,6.1754 -19.2848,12.53507 -29.2085,16.51945 -18.0255,7.2372 -39.4945,10.57642 -60.0519,9.34025 z m 20.8452,-29.21637 c 14.8635,-1.75009 28.2632,-6.40083 40.5101,-14.06017 26.1788,-16.37236 41.5599,-43.37037 44.2077,-77.59649 0.9232,-11.9328 -0.1763,-25.12147 -3.0793,-36.9381 -5.4856,-22.32884 -17.0286,-40.31721 -34.2022,-53.30016 -14.1479,-10.69557 -30.405,-17.02945 -48.7725,-19.00213 -4.3282,-0.46485 -18.8473,-0.47338 -22.8496,-0.0134 -9.2046,1.05785 -17.8019,3.06826 -25.1707,5.88598 -25.1608,9.62123 -45.0321,27.40763 -56.3042,50.39691 -5.2807,10.7698 -8.1524,20.3511 -9.7005,32.3649 -0.684,5.30832 -0.684,18.47663 0,23.78495 1.2302,9.54632 3.5468,18.37519 6.9038,26.31092 9.0812,21.46717 24.3516,38.43758 44.8367,49.82814 12.4227,6.90761 25.8914,11.16872 39.3013,12.43384 1.6903,0.15947 3.5543,0.33686 4.1423,0.39424 2.608,0.25445 16.7786,-0.0893 20.1771,-0.48943 z m 290.898,29.23596 c -18.3339,-1.08748 -34.0958,-5.13215 -49.4406,-12.68695 -11.4397,-5.63217 -20.4391,-11.97818 -29.3658,-20.70774 -10.2533,-10.02675 -17.5139,-20.1384 -23.701,-33.00761 -10.8344,-22.53569 -15.3863,-49.93382 -12.9328,-77.84187 2.4688,-28.08174 12.9947,-53.83021 30.1229,-73.68703 3.4664,-4.01861 11.1444,-11.47905 15.0314,-14.60556 15.7616,-12.6776 34.0051,-21.1824 52.9395,-24.67946 9.8531,-1.81979 20.9634,-2.55151 31.201,-2.05486 18.4528,0.89514 33.0417,4.45003 47.0704,11.46972 5.4734,2.7388 7.5408,3.93628 12.8351,7.43445 12.813,8.46619 23.3896,19.39001 31.8137,32.85834 2.2326,3.56949 6.0078,10.87328 7.8737,15.23307 3.3175,7.75173 6.6889,19.38484 8.1324,28.0609 1.3972,8.3978 1.5434,10.76309 1.6812,27.19236 l 0.1295,15.4335 -103.7611,0 -103.761,0 0.1695,3.34582 c 0.4007,7.9055 2.9948,20.71242 5.9188,29.22027 4.7306,13.76441 14.0026,27.87997 24.5933,37.44046 8.6816,7.83709 17.6155,13.57188 26.7253,17.15547 14.1396,5.56221 35.2919,7.36649 52.7564,4.50017 16.8353,-2.76309 34.1299,-10.42313 47.5947,-21.0805 5.6947,-4.50736 12.9062,-12.44293 16.9701,-18.6741 0.882,-1.35222 1.6953,-2.46046 1.8074,-2.46276 0.1122,-0.003 5.433,4.39492 11.824,9.77166 l 11.62,9.77583 -1.2549,1.78259 c -5.4635,7.76098 -8.8252,11.78667 -14.8851,17.82559 -8.3541,8.32508 -15.7905,13.74298 -25.8143,18.80709 -14.844,7.49937 -31.77,12.11774 -50.5096,13.78188 -5.7492,0.51052 -17.9857,0.71946 -23.3841,0.39924 z m 91.1767,-154.25966 c -1.0872,-24.17698 -14.6609,-47.37688 -35.9902,-61.5139 -11.639,-7.71423 -23.9758,-12.30761 -38.2163,-14.22912 -5.081,-0.68559 -18.2421,-0.68562 -23.785,-5e-5 -13.9982,1.73136 -23.647,5.15909 -34.2458,12.16579 -12.0803,7.98614 -20.1162,15.91872 -27.5773,27.22277 -5.8413,8.85012 -9.1831,15.79367 -12.0625,25.06333 -1.6252,5.23197 -3.0466,11.03382 -3.2573,13.29553 l -0.1681,1.80391 87.7369,0 87.7369,0 -0.1713,-3.80826 z m 200.71792,154.2711 c -19.8488,-1.13102 -36.6887,-5.31081 -49.2346,-12.22039 -11.7502,-6.47138 -20.1426,-14.5418 -26.3412,-25.33074 -5.49512,-9.56428 -8.45302,-20.24303 -9.32582,-33.66848 -0.1792,-2.75727 -0.2777,-26.6542 -0.2777,-67.41301 l 0,-63.14158 -25.6557,0 -25.6556,0 0,-32.06962 0,-32.0696 25.6556,0 25.6557,0 0,-38.48352 0,-38.48352 40.08702,0 40.087,0 0,38.48352 0,38.48352 35.2766,0 35.2766,0 0,32.0696 0,32.06962 -35.2766,0 -35.2766,0 0,46.56773 c 0,46.3687 0.078,51.09274 0.9528,58.68878 1.1464,9.95162 4.3891,17.18171 9.7859,21.81927 8.2318,7.07373 21.1501,9.07396 42.1752,6.53028 7.7044,-0.93213 12.644,-2.5176 16.1274,-5.17654 0.6866,-0.52407 1.3074,-0.95284 1.3796,-0.95284 0.072,0 0.1313,14.96253 0.1313,33.25008 l 0,33.25009 -3.2738,1.07526 c -11.1033,3.64699 -21.2852,5.41239 -37.2141,6.45243 -5.9157,0.38628 -20.2975,0.54102 -25.0599,0.26966 z m 234.9823,0.0785 c -1.2494,-0.0424 -4.4965,-0.26249 -7.2157,-0.48917 -43.7338,-3.64554 -81.2572,-23.49526 -104.31,-55.1796 -10.9921,-15.10788 -18.7197,-32.54263 -22.3282,-50.376 -2.3426,-11.57787 -3.3264,-24.65995 -2.7582,-36.67961 0.8078,-17.08613 3.6119,-30.96503 9.007,-44.57988 9.9325,-25.065 26.8721,-45.9902 49.0559,-60.59801 17.8899,-11.78026 38.9883,-19.57168 61.579,-22.74051 8.7916,-1.23321 13.9951,-1.57846 23.9186,-1.58696 13.6357,-0.0118 22.7119,1.01129 33.9779,3.82954 32.8138,8.20861 57.8581,28.69011 73.0396,59.73272 7.7358,15.81787 12.5512,33.56623 14.4291,53.18209 0.6992,7.30342 0.9493,15.22909 0.9508,30.13205 l 0,14.36451 -93.0018,0 c -51.151,0 -93.001,0.0902 -92.9999,0.20043 0,0.11024 0.3555,1.58344 0.7875,3.27377 5.8624,22.9407 21.6982,39.54896 42.675,44.75693 5.382,1.33618 8.6342,1.75995 14.7953,1.92784 14.8879,0.4057 26.3913,-2.57976 36.7361,-9.53408 7.789,-5.23625 14.5795,-11.58338 20.6279,-19.28121 0.9661,-1.22952 1.8601,-2.27448 1.9867,-2.32211 0.3663,-0.13774 55.699,40.55252 55.699,40.95965 0,0.59801 -4.5127,5.86892 -8.6798,10.13824 -10.3302,10.58348 -21.2458,18.53668 -34.6142,25.22028 -23.2893,11.64365 -46.3578,16.56465 -73.3592,15.64906 z m 49.1733,-168.1198 c 0,-14.2435 -7.1175,-28.14947 -19.0006,-37.12294 -6.0466,-4.56605 -12.9382,-7.46384 -20.9527,-8.81031 -4.1013,-0.68902 -14.9533,-0.69465 -19.3193,-0.0102 -8.9945,1.4104 -16.5765,4.36782 -24.1083,9.40357 -7.7343,5.17115 -13.2786,11.37317 -17.2018,19.24251 -2.6425,5.30052 -4.6293,12.21376 -5.1266,17.83872 l -0.1831,2.07116 52.9462,0 52.9462,0 0,-2.61266 z m 257.6258,168.14005 c -46.5982,-1.99657 -87.2174,-22.27928 -111.5256,-55.68902 -10.9921,-15.10788 -18.7198,-32.54263 -22.3282,-50.376 -2.3427,-11.57787 -3.3264,-24.65995 -2.7582,-36.67961 0.8078,-17.08613 3.6119,-30.96503 9.007,-44.57988 9.9325,-25.065 26.872,-45.9902 49.0559,-60.59801 20.469,-13.47856 44.0741,-21.37645 71.3335,-23.86698 6.8611,-0.62688 21.4465,-0.63516 27.5264,-0.0158 20.7636,2.11568 40.9771,7.71273 54.525,15.09778 8.4296,4.59498 16.9343,10.8714 22.81,16.83368 1.9228,1.95117 2.0732,2.18025 1.7371,2.64619 -0.7751,1.07442 -52.1694,54.87776 -52.3519,54.80579 -0.1058,-0.0417 -0.919,-0.98237 -1.8072,-2.09035 -7.1696,-8.94434 -19.0211,-15.34808 -31.4526,-16.99478 -3.8865,-0.51479 -12.9756,-0.36198 -17.7475,0.29838 -18.6947,2.58711 -32.1053,10.62902 -41.8153,25.07536 -3.9541,5.88285 -7.5157,14.49017 -9.0883,21.96367 -1.3709,6.51518 -1.6198,9.28671 -1.6198,18.03916 0,8.75244 0.2489,11.52397 1.6198,18.03915 1.5726,7.4735 5.1342,16.08082 9.0883,21.96367 9.7099,14.44618 23.1308,22.49402 41.8153,25.0745 4.282,0.59139 13.5758,0.8182 17.0714,0.41661 7.7945,-0.89543 13.3187,-2.89476 19.7763,-7.15737 3.9425,-2.60248 7.7769,-5.7534 11.2293,-9.22774 l 2.9602,-2.97902 1.9598,1.98949 c 4.9892,5.06481 50.6624,53.21456 50.6624,53.40946 0,0.42784 -6.0559,6.07236 -9.3537,8.71834 -12.4642,10.00058 -24.815,15.93629 -42.7595,20.54993 -9.6092,2.47062 -17.9297,3.95501 -27.1255,4.83925 -4.1881,0.40272 -15.9449,0.6868 -20.4444,0.49401 z M 7.942275,280.60903 l 0,-123.46797 16.0348,0 16.0348,0 0,123.46797 0,123.46797 -16.0348,0 -16.0348,0 0,-123.46797 z m 1741.913825,-78.57051 0,-202.0385100000003 40.087,0 40.087,0 0,89.8134600000003 0,89.81349 0.5397,-0.0854 c 0.3947,-0.0625 0.8492,-0.77424 1.6929,-2.65123 2.5302,-5.62931 5.9099,-10.29321 11.512,-15.88655 6.1477,-6.13815 11.507,-9.95035 19.5277,-13.89042 14.623,-7.18348 29.4557,-9.92794 48.5052,-8.97478 18.5778,0.92953 32.364,4.2547 43.8598,10.5788 11.0406,6.07363 20.1266,14.52595 26.4779,24.63129 9.7566,15.52332 14.7852,34.23183 16.9059,62.89743 0.8596,11.61933 0.9445,20.03028 0.9462,93.73676 l 0,74.09415 -40.087,0 -40.087,0 0,-67.81385 c 0,-64.9619 -0.082,-73.21996 -0.8111,-83.04689 -0.8749,-11.7933 -4.0349,-22.35145 -8.8396,-29.53445 -1.8994,-2.83971 -5.6837,-6.90477 -8.2262,-8.83648 -3.5642,-2.70804 -8.5052,-4.69203 -14.3249,-5.75195 -3.8506,-0.70131 -15.3115,-0.71307 -19.509,-0.0201 -7.2208,1.19222 -12.0515,2.94509 -16.9358,6.14537 -7.0483,4.61813 -11.5578,10.13086 -15.1317,18.49804 -3.2496,7.60808 -4.9119,16.304 -5.7454,30.05573 -0.1658,2.73656 -0.2677,30.18914 -0.2685,72.35706 l 0,67.94747 -40.087,0 -40.087,0 0,-202.03851 z M 19.825775,82.99448 c -7.4385,-1.1563 -14.006,-5.9941 -17.4335,-12.84209 -3.1897,-6.37271 -3.1897,-15.27427 0,-21.64698 2.2459,-4.48723 6.2464,-8.48615 10.7613,-10.75729 6.3512,-3.19477 15.2958,-3.19477 21.647,0 4.5149,2.27114 8.5153,6.27006 10.7613,10.75729 3.1897,6.37271 3.1897,15.27427 0,21.64698 -1.1804,2.35835 -2.848,4.58361 -4.9189,6.56393 -3.8362,3.66836 -7.5149,5.49219 -12.6572,6.27509 -3.0044,0.45742 -5.2317,0.45827 -8.16,0.003 z"
     id="path3135"
     inkscape:connector-curvature="0" />
</svg>
